# xmcd CD database file generated by Grip 2.92
# 
# Track frame offsets:
#       180
#       21596
#       43757
#       75238
#       96145
#       115254
#       133128
#       155372
#       176424
#       196240
#       226337
#       253386
#       279942
#       298933
# 
# Disc length: 4424 seconds
# 
# Revision: 3
# Processed by: cddbd v1.4b41PL1 Copyright (c) Steve Scherf et al.
# Submitted via: Grip 2.92
# 
DISCID=c311460e
DTITLE=Rhett Tyler and Early Warning - My Passion
DYEAR=1900
DGENRE=
TTITLE0=Train Song
TTITLE1=Right as Rain
TTITLE2=Cold Wind Blowin
TTITLE3=Robin Hood
TTITLE4=Love in Vain
TTITLE5=Poor Boy
TTITLE6=Carry on the Light
TTITLE7=All Your Love
TTITLE8=Walkin in the Spirit
TTITLE9=My Passion
TTITLE10=Sweet Memories
TTITLE11=Hear My Angel
TTITLE12=Be Careful with a Fool
TTITLE13=At the Cross
EXTD=
EXTT0=
EXTT1=
EXTT2=
EXTT3=
EXTT4=
EXTT5=
EXTT6=
EXTT7=
EXTT8=
EXTT9=
EXTT10=
EXTT11=
EXTT12=
EXTT13=
PLAYORDER=
